<?xml version="1.0" standalone="no"?><!DOCTYPE svg PUBLIC "-//W3C//DTD SVG 1.1//EN" "http://www.w3.org/Graphics/SVG/1.1/DTD/svg11.dtd"><svg t="1773982627371" class="icon" viewBox="0 0 1024 1024" version="1.1" xmlns="http://www.w3.org/2000/svg" p-id="41039" xmlns:xlink="http://www.w3.org/1999/xlink" width="200" height="200"><path d="M824.893 0H199.107A113.89 113.89 0 0 0 85.33 113.777v796.446A113.89 113.89 0 0 0 199.107 1024h625.786A113.89 113.89 0 0 0 938.67 910.223V113.777A113.89 113.89 0 0 0 824.893 0zM625.777 56.893h113.776v227.554l-34.14-45.497c-10.721-14.336-34.816-14.336-45.496 0l-34.14 45.497z m-483.554 853.33V113.777a56.965 56.965 0 0 1 56.894-56.894H256v910.224h-56.893a56.965 56.965 0 0 1-56.884-56.884z m739.554 0a56.965 56.965 0 0 1-56.894 56.894h-512V56.893h256v312.884a28.436 28.436 0 0 0 51.2 17.06l62.587-83.416 62.587 83.415a28.436 28.436 0 0 0 51.2-17.06V56.894h28.447a56.965 56.965 0 0 1 56.893 56.894z" fill="#2c2c2c" p-id="41040"></path></svg>