<svg xmlns="http://www.w3.org/2000/svg" width="14" height="14" viewBox="0 0 1024 1024">
  <path d="M512 838c-39.98 0-78.592-5.132-115.02-14.686-23.648-6.2-88.642 15.36-194.98 64.686 28.444-92.068 35.188-144.976 20.232-158.724C153.926 666.49 112 581.53 112 488c0-193.3 179.086-350 400-350s400 156.7 400 350-179.086 350-400 350z m-159-304c24.852 0 45-20.148 45-45S377.852 444 353 444 308 464.148 308 489s20.148 45 45 45z m160 0c24.852 0 45-20.148 45-45S537.852 444 513 444 468 464.148 468 489s20.148 45 45 45z m160 0c24.852 0 45-20.148 45-45S697.852 444 673 444 628 464.148 628 489s20.148 45 45 45z" fill="currentColor"/>
</svg>
