<?xml version="1.0" standalone="no"?><!DOCTYPE svg PUBLIC "-//W3C//DTD SVG 1.1//EN" "http://www.w3.org/Graphics/SVG/1.1/DTD/svg11.dtd"><svg t="1774317049352" class="icon" viewBox="0 0 1024 1024" version="1.1" xmlns="http://www.w3.org/2000/svg" p-id="11043" xmlns:xlink="http://www.w3.org/1999/xlink" width="200" height="200"><path d="M512 149.333333a362.325333 362.325333 0 0 0-300.8 160H320a32 32 0 0 1 0 64H124.032V170.666667a32 32 0 1 1 64 0v63.658666A425.685333 425.685333 0 0 1 512 85.333333c235.648 0 426.666667 191.018667 426.666667 426.666667s-191.018667 426.666667-426.666667 426.666667S85.333333 747.648 85.333333 512a32 32 0 0 1 64 0A362.666667 362.666667 0 1 0 512 149.333333z" p-id="11044"></path><path d="M512 266.666667a32 32 0 0 1 32 32v200.106666l97.28 97.28a32 32 0 1 1-45.226667 45.226667l-116.053333-116.053333V298.666667a32 32 0 0 1 32-32z" p-id="11045"></path></svg>