<?xml version="1.0" standalone="no"?><!DOCTYPE svg PUBLIC "-//W3C//DTD SVG 1.1//EN" "http://www.w3.org/Graphics/SVG/1.1/DTD/svg11.dtd"><svg t="1771448180856" class="icon" viewBox="0 0 1024 1024" version="1.1" xmlns="http://www.w3.org/2000/svg" p-id="7730" xmlns:xlink="http://www.w3.org/1999/xlink" width="200" height="200"><path d="M512 42.666667a341.333333 341.333333 0 0 0-203.861333 615.125333L341.333333 773.973333V853.333333a128 128 0 0 0 128 128h85.333334a128 128 0 0 0 128-128v-79.36l33.194666-116.181333A341.333333 341.333333 0 0 0 512 42.666667z m125.909333 577.28L607.829333 725.333333H416.170667l-30.08-105.386666a42.666667 42.666667 0 0 0-17.152-23.637334 256 256 0 1 1 286.122666 0 42.666667 42.666667 0 0 0-17.152 23.637334zM426.666667 853.333333v-42.666666h170.666666v42.666666a42.666667 42.666667 0 0 1-42.666666 42.666667h-85.333334a42.666667 42.666667 0 0 1-42.666666-42.666667zM350.890667 327.552a171.008 171.008 0 0 1 104.96-104.746667 42.666667 42.666667 0 0 1 28.074666 80.597334c-24.448 8.533333-43.946667 27.904-52.48 52.352a42.666667 42.666667 0 1 1-80.554666-28.16z" fill="#333333" p-id="7731"></path></svg>