<?xml version="1.0" standalone="no"?>
<!DOCTYPE svg PUBLIC "-//W3C//DTD SVG 1.1//EN" "http://www.w3.org/Graphics/SVG/1.1/DTD/svg11.dtd">
<svg t="1776330978023" class="icon" viewBox="0 0 1024 1024" version="1.1" xmlns="http://www.w3.org/2000/svg" p-id="12834" xmlns:xlink="http://www.w3.org/1999/xlink" width="200" height="200">
<path d="M618.29 810.583c-11.716-11.716-11.716-30.711 0-42.426l149.281-149.281c11.716-11.716 30.711-11.716 42.426 0 11.716 11.716 11.716 30.711 0 42.426L660.716 810.583c-11.715 11.715-30.71 11.715-42.426 0zM426.936 810.936c-11.716-11.716-11.716-30.711 0-42.426l340.998-340.998c11.716-11.716 30.711-11.716 42.426 0 11.716 11.716 11.716 30.711 0 42.426L469.363 810.936c-11.716 11.716-30.711 11.716-42.427 0z" fill="#231815" p-id="12835"></path>
</svg>
