<?xml version="1.0" standalone="no"?><!DOCTYPE svg PUBLIC "-//W3C//DTD SVG 1.1//EN" "http://www.w3.org/Graphics/SVG/1.1/DTD/svg11.dtd"><svg t="1774170768288" class="icon" viewBox="0 0 1024 1024" version="1.1" xmlns="http://www.w3.org/2000/svg" p-id="1645" xmlns:xlink="http://www.w3.org/1999/xlink" width="200" height="200"><path d="M0 219.428571v585.142858a102.985143 102.985143 0 0 0 102.4 102.4h819.2A102.985143 102.985143 0 0 0 1024 804.571429V219.428571a102.985143 102.985143 0 0 0-102.4-102.4H102.4A102.985143 102.985143 0 0 0 0 219.428571z m87.771429 585.142858V219.428571c0-8.045714 6.582857-14.628571 14.628571-14.628571H292.571429v614.4H102.4a14.628571 14.628571 0 0 1-14.628571-14.628571z m848.457142-585.142858v585.142858a14.628571 14.628571 0 0 1-14.628571 14.628571H380.342857V204.8h541.257143c8.045714 0 14.628571 6.582857 14.628571 14.628571z" p-id="1646"></path></svg>