<svg xmlns="http://www.w3.org/2000/svg">
  <symbol id="bar-chart" viewBox="0 0 24 24" fill="none" stroke="currentColor" stroke-width="2" stroke-linecap="round" stroke-linejoin="round"><line x1="18" x2="18" y1="20" y2="10"/>
  <line x1="12" x2="12" y1="20" y2="4"/>
  <line x1="6" x2="6" y1="20" y2="14"/></symbol>
  <symbol id="book" viewBox="0 0 1024 1024"><path d="M824.893 0H199.107A113.89 113.89 0 0 0 85.33 113.777v796.446A113.89 113.89 0 0 0 199.107 1024h625.786A113.89 113.89 0 0 0 938.67 910.223V113.777A113.89 113.89 0 0 0 824.893 0zM625.777 56.893h113.776v227.554l-34.14-45.497c-10.721-14.336-34.816-14.336-45.496 0l-34.14 45.497z m-483.554 853.33V113.777a56.965 56.965 0 0 1 56.894-56.894H256v910.224h-56.893a56.965 56.965 0 0 1-56.884-56.884z m739.554 0a56.965 56.965 0 0 1-56.894 56.894h-512V56.893h256v312.884a28.436 28.436 0 0 0 51.2 17.06l62.587-83.416 62.587 83.415a28.436 28.436 0 0 0 51.2-17.06V56.894h28.447a56.965 56.965 0 0 1 56.893 56.894z" fill="#2c2c2c" p-id="41040"></path></symbol>
  <symbol id="calender" viewBox="0 0 1024 1024"><path d="M527.050788 582.114894a533.007453 533.007453 0 0 0-40.522926 71.713298 494.748081 494.748081 0 0 0-28.488844 77.116356c-7.367805 26.524097-12.034081 53.377698-13.998829 80.554664h61.399395c2.286066-31.105439 6.876618-60.247152 13.752212-87.431282 6.876618-27.175943 15.795754-52.963259 26.76969-77.361949 10.967796-24.390503 23.822568-47.476291 38.558178-69.257363 14.735609-21.772886 31.105439-42.810015 49.118697-63.117526v-46.662763h-235.278561v50.101071h178.301895c-17.683754 19.976984-34.222429 41.428551-49.610907 64.345494z" p-id="9204" fill="#000000"></path><path d="M838.026378 126.409015h-59.445904V79.237669c0-6.723122-5.64251-12.254092-12.603039-12.254092h-34.219359c-7.118118 0-12.602016 5.485945-12.602016 12.254092v47.171346h-415.973969V79.237669c0-6.723122-5.64251-12.254092-12.602016-12.254092h-34.220383c-7.118118 0-12.602016 5.485945-12.602016 12.254092v47.171346H184.311773c-65.738213 0-118.828362 53.168943-118.828363 118.755707v594.434478c0 65.448618 53.200666 118.755708 118.828363 118.755707h653.715628c65.738213 0 118.828362-53.168943 118.828363-118.755707V245.164722c-0.001023-65.448618-53.202713-118.755708-118.829386-118.755707z m59.402925 713.191208c0 32.806173-26.523073 59.331293-59.402925 59.331293H184.310749c-32.757055 0-59.402925-26.65201-59.402925-59.331293V364.107695h772.521479v475.492528z m0-534.916942H124.907824v-59.518559c0-32.806173 26.523073-59.331293 59.402925-59.331293h59.445904v47.171346c0 6.723122 5.64251 12.254092 12.602016 12.254091h34.220382c7.118118 0 12.602016-5.485945 12.602016-12.254091v-47.171346h415.972947v47.171346c0 6.723122 5.64251 12.254092 12.602015 12.254091h34.21936c7.119141 0 12.603039-5.485945 12.603039-12.254091v-47.171346h59.445904c32.757055 0 59.402925 26.65201 59.402924 59.331293v59.518559z" p-id="9205" fill="#000000"></path></symbol>
  <symbol id="chat-bubble" viewBox="0 0 1024 1024"><path d="M512 838c-39.98 0-78.592-5.132-115.02-14.686-23.648-6.2-88.642 15.36-194.98 64.686 28.444-92.068 35.188-144.976 20.232-158.724C153.926 666.49 112 581.53 112 488c0-193.3 179.086-350 400-350s400 156.7 400 350-179.086 350-400 350z m-159-304c24.852 0 45-20.148 45-45S377.852 444 353 444 308 464.148 308 489s20.148 45 45 45z m160 0c24.852 0 45-20.148 45-45S537.852 444 513 444 468 464.148 468 489s20.148 45 45 45z m160 0c24.852 0 45-20.148 45-45S697.852 444 673 444 628 464.148 628 489s20.148 45 45 45z" fill="currentColor"/></symbol>
  <symbol id="check-recording" viewBox="0 0 20 20" fill="currentColor"><path d="M15.484 4.146a.626.626 0 1 1 1.033.708l-7.548 11a.628.628 0 0 1-.964.086l-4.451-4.518.446-.44.446-.44 3.918 3.976zM3.56 10.536a.627.627 0 0 1 .886.006l-.892.88a.627.627 0 0 1 .006-.887"/></symbol>
  <symbol id="chevron-left" viewBox="0 0 20 20" fill="currentColor"><path d="M11.53 3.78a.666.666 0 0 1 .94.94L7.192 10l5.28 5.28.085.104a.666.666 0 0 1-.922.922l-.105-.085-5.75-5.75a.666.666 0 0 1 0-.942z"/></symbol>
  <symbol id="close-recording" viewBox="0 0 20 20" fill="currentColor"><path d="M14.255 4.755a.7.7 0 0 1 .99.99L10.99 10l4.255 4.255.09.11a.7.7 0 0 1-.97.97l-.11-.09L10 10.99l-4.255 4.255a.7.7 0 0 1-.99-.99L9.01 10 4.755 5.745l-.09-.11a.7.7 0 0 1 .97-.97l.11.09L10 9.01z"/></symbol>
  <symbol id="close" viewBox="0 0 20 20" fill="currentColor"><path d="M15.78 10.196a.665.665 0 0 1 .449.827l-.08.25a6.5 6.5 0 0 1-5.485 4.357l.001 1.205h1.418l.134.014a.665.665 0 0 1 0 1.302l-.134.014H7.916a.665.665 0 0 1 0-1.33h1.42l-.002-1.205a6.5 6.5 0 0 1-5.484-4.357l-.08-.25-.026-.132a.665.665 0 0 1 1.25-.371l.051.124.064.198a5.17 5.17 0 0 0 9.844-.198l.052-.124a.664.664 0 0 1 .776-.324m-3.529-4.779a2.252 2.252 0 1 0-4.503 0v3.75a2.252 2.252 0 0 0 4.503 0zm1.33 3.75a3.581 3.581 0 0 1-7.163 0v-3.75a3.582 3.582 0 0 1 7.163 0z"/></symbol>
  <symbol id="delete" viewBox="0 0 20 20" fill="currentColor"><path d="M10.6299 1.33496C12.0335 1.33496 13.2695 2.25996 13.666 3.60645L13.8809 4.33496H17L17.1338 4.34863C17.4369 4.41057 17.665 4.67858 17.665 5C17.665 5.32142 17.4369 5.58943 17.1338 5.65137L17 5.66504H16.6543L15.8574 14.9912C15.7177 16.629 14.3478 17.8877 12.7041 17.8877H7.2959C5.75502 17.8877 4.45439 16.7815 4.18262 15.2939L4.14258 14.9912L3.34668 5.66504H3C2.63273 5.66504 2.33496 5.36727 2.33496 5C2.33496 4.63273 2.63273 4.33496 3 4.33496H6.11914L6.33398 3.60645L6.41797 3.3584C6.88565 2.14747 8.05427 1.33496 9.37012 1.33496H10.6299ZM5.46777 14.8779L5.49121 15.0537C5.64881 15.9161 6.40256 16.5576 7.2959 16.5576H12.7041C13.6571 16.5576 14.4512 15.8275 14.5322 14.8779L15.3193 5.66504H4.68164L5.46777 14.8779ZM7.66797 12.8271V8.66016C7.66797 8.29299 7.96588 7.99528 8.33301 7.99512C8.70028 7.99512 8.99805 8.29289 8.99805 8.66016V12.8271C8.99779 13.1942 8.70012 13.4912 8.33301 13.4912C7.96604 13.491 7.66823 13.1941 7.66797 12.8271ZM11.002 12.8271V8.66016C11.002 8.29289 11.2997 7.99512 11.667 7.99512C12.0341 7.9953 12.332 8.293 12.332 8.66016V12.8271C12.3318 13.1941 12.0339 13.491 11.667 13.4912C11.2999 13.4912 11.0022 13.1942 11.002 12.8271ZM9.37012 2.66504C8.60726 2.66504 7.92938 3.13589 7.6582 3.83789L7.60938 3.98145L7.50586 4.33496H12.4941L12.3906 3.98145C12.1607 3.20084 11.4437 2.66504 10.6299 2.66504H9.37012Z"></path></symbol>
  <symbol id="desktop" viewBox="0 0 20 20" fill="currentColor"><path d="M9.335 16.5v-5.835H3.5a.665.665 0 1 1 0-1.33h5.835V3.5a.665.665 0 0 1 1.33 0v5.835H16.5l.134.014a.665.665 0 0 1 0 1.302l-.134.014h-5.835V16.5a.665.665 0 1 1-1.33 0"/></symbol>
  <symbol id="duplicate" viewBox="0 0 20 20" fill="currentColor"><path d="M12.668 10.667c0-.71 0-1.204-.031-1.588a2.4 2.4 0 0 0-.113-.615l-.055-.13a1.84 1.84 0 0 0-.676-.731l-.127-.072c-.158-.08-.37-.137-.745-.168-.384-.031-.877-.031-1.588-.031H6.5c-.711 0-1.204 0-1.588.031a2.4 2.4 0 0 0-.615.113l-.13.055a1.84 1.84 0 0 0-.731.676l-.07.127c-.081.158-.138.37-.169.745-.031.384-.032.877-.032 1.588V13.5c0 .711 0 1.204.032 1.588.031.376.088.587.168.745l.07.126c.177.288.43.522.732.676l.13.056c.144.052.333.089.615.112.384.031.877.032 1.588.032h2.833c.71 0 1.204 0 1.588-.032.376-.031.587-.088.745-.168l.127-.07c.287-.177.522-.43.676-.732l.055-.13c.052-.144.09-.333.113-.615.031-.384.031-.877.031-1.588zm1.33 1.998c.455-.002.803-.005 1.09-.028.376-.031.587-.088.745-.168l.126-.071c.288-.177.522-.43.676-.732l.056-.13a2.4 2.4 0 0 0 .112-.615c.031-.384.032-.877.032-1.588V6.5c0-.711 0-1.204-.032-1.588a2.4 2.4 0 0 0-.112-.615l-.056-.13a1.84 1.84 0 0 0-.676-.731l-.126-.07c-.158-.081-.37-.138-.745-.169-.384-.031-.877-.032-1.588-.032h-2.833c-.71 0-1.204.001-1.588.032-.282.023-.471.06-.615.112l-.13.056a1.84 1.84 0 0 0-.731.676l-.072.126c-.08.158-.137.37-.168.745-.023.287-.027.635-.029 1.09h1.999c.689 0 1.246 0 1.696.036.458.038.865.117 1.242.309l.217.122c.496.304.9.74 1.165 1.26l.067.143c.144.337.21.698.242 1.099.037.45.036 1.007.036 1.696zm4.167-3.332c0 .689 0 1.246-.036 1.696-.033.401-.098.762-.242 1.099l-.067.143c-.265.52-.67.956-1.165 1.26l-.219.122c-.376.192-.782.271-1.24.309-.337.027-.734.031-1.2.033-.003.467-.007.864-.034 1.201-.033.401-.098.762-.242 1.098l-.067.142c-.265.522-.669.958-1.165 1.262l-.217.122c-.377.192-.784.271-1.242.309-.45.037-1.007.036-1.696.036H6.5c-.69 0-1.246 0-1.696-.036-.4-.033-.762-.098-1.098-.242l-.143-.067a3.17 3.17 0 0 1-1.261-1.165l-.122-.219c-.192-.376-.271-.782-.309-1.24-.037-.45-.036-1.007-.036-1.696v-2.833c0-.689 0-1.246.036-1.696.038-.458.117-.865.309-1.242l.122-.217c.304-.496.74-.9 1.261-1.165l.143-.067c.336-.144.697-.21 1.098-.242.337-.027.733-.032 1.2-.034.002-.467.007-.863.034-1.2.037-.458.117-.864.309-1.24l.122-.22c.304-.495.74-.899 1.26-1.164l.143-.067c.337-.144.698-.21 1.099-.242.45-.037 1.007-.036 1.696-.036H13.5c.69 0 1.246 0 1.696.036.458.038.864.117 1.24.309l.22.122c.495.304.899.74 1.164 1.261l.067.143c.144.336.21.697.242 1.098.037.45.036 1.007.036 1.696z" xmlns="http://www.w3.org/2000/svg" /></symbol>
  <symbol id="edit-square" viewBox="0 0 20 20" fill="currentColor"><path d="M2.669 11.333V8.667c0-.922 0-1.655.048-2.244.048-.597.15-1.106.387-1.571l.155-.276a4 4 0 0 1 1.593-1.472l.177-.083c.418-.179.872-.263 1.395-.305.589-.048 1.32-.048 2.243-.048h.5a.665.665 0 0 1 0 1.33h-.5c-.944 0-1.613 0-2.135.043-.386.032-.66.085-.876.162l-.2.086a2.67 2.67 0 0 0-1.064.982l-.102.184c-.126.247-.206.562-.248 1.076-.043.523-.043 1.192-.043 2.136v2.666c0 .944 0 1.613.043 2.136.042.514.122.829.248 1.076l.102.184c.257.418.624.758 1.064.982l.2.086c.217.077.49.13.876.161.522.043 1.19.044 2.135.044h2.667c.944 0 1.612-.001 2.135-.044.514-.042.829-.121 1.076-.247l.184-.104c.418-.256.759-.623.983-1.062l.086-.2c.077-.217.13-.49.16-.876.043-.523.044-1.192.044-2.136v-.5a.665.665 0 0 1 1.33 0v.5c0 .922.001 1.655-.047 2.244-.043.522-.127.977-.306 1.395l-.083.176a4 4 0 0 1-1.471 1.593l-.276.154c-.466.238-.975.34-1.572.39-.59.047-1.321.047-2.243.047H8.667c-.923 0-1.654 0-2.243-.048-.523-.043-.977-.126-1.395-.305l-.177-.084a4 4 0 0 1-1.593-1.471l-.155-.276c-.237-.465-.339-.974-.387-1.57-.049-.59-.048-1.322-.048-2.245m10.796-8.22a2.43 2.43 0 0 1 3.255.167l.167.185c.727.892.727 2.18 0 3.071l-.168.185-5.046 5.048a4 4 0 0 1-1.945 1.072l-.317.058-1.817.26a.665.665 0 0 1-.752-.753l.26-1.816.058-.319a4 4 0 0 1 1.072-1.944L13.28 3.28zm2.314 1.108a1.103 1.103 0 0 0-1.476-.076l-.084.076-5.046 5.048a2.67 2.67 0 0 0-.716 1.296l-.04.212-.134.939.94-.134.211-.039a2.67 2.67 0 0 0 1.298-.716L15.78 5.78l.076-.084c.33-.404.33-.988 0-1.392z"/></symbol>
  <symbol id="edit" viewBox="0 0 20 20" fill="currentColor"><path d="M11.331 3.568a3.61 3.61 0 0 1 4.973.128l.128.135a3.61 3.61 0 0 1 0 4.838l-.128.135-6.292 6.29c-.324.324-.558.561-.79.752l-.235.177q-.309.21-.65.36l-.23.093c-.181.066-.369.114-.585.159l-.765.135-2.394.399c-.142.024-.294.05-.422.06-.1.007-.233.01-.378-.026l-.149-.049a1.1 1.1 0 0 1-.522-.474l-.046-.094a1.1 1.1 0 0 1-.074-.526c.01-.129.035-.28.06-.423l.398-2.394.134-.764a4 4 0 0 1 .16-.586l.093-.23q.15-.342.36-.65l.176-.235c.19-.232.429-.466.752-.79l6.291-6.292zm-5.485 7.36c-.35.35-.533.535-.66.688l-.11.147a2.7 2.7 0 0 0-.24.433l-.062.155c-.04.11-.072.225-.106.394l-.127.717-.398 2.393-.001.002h.003l2.393-.399.717-.126c.169-.034.284-.065.395-.105l.153-.062q.228-.1.433-.241l.148-.11c.153-.126.338-.31.687-.66l4.988-4.988-3.226-3.226zm9.517-6.291a2.28 2.28 0 0 0-3.053-.157l-.173.157-.364.363L15 8.226l.363-.363.157-.174a2.28 2.28 0 0 0 0-2.878z"/></symbol>
  <symbol id="find" viewBox="0 0 1024 1024"><path d="M512 85.333333c235.637333 0 426.666667 191.029333 426.666667 426.666667S747.637333 938.666667 512 938.666667 85.333333 747.637333 85.333333 512 276.362667 85.333333 512 85.333333z m0 64c-200.298667 0-362.666667 162.368-362.666667 362.666667s162.368 362.666667 362.666667 362.666667 362.666667-162.368 362.666667-362.666667-162.368-362.666667-362.666667-362.666667z m149.162667 158.901334a42.666667 42.666667 0 0 1 54.602666 54.602666L637.642667 579.84a96 96 0 0 1-57.813334 57.802667l-216.992 78.122666a42.666667 42.666667 0 0 1-54.602666-54.602666l78.122666-217.002667a96 96 0 0 1 57.813334-57.802667z m-20.970667 75.573333l-174.346667 62.762667a32 32 0 0 0-19.274666 19.274666l-62.762667 174.346667 174.346667-62.762667a32 32 0 0 0 19.274666-19.274666l62.762667-174.346667z" fill="#000000" p-id="5535"></path></symbol>
  <symbol id="hangup" viewBox="0 0 1024 1024"><path d="M156.853 648.88h-16.816c-0.736-0.207-1.46-0.526-2.211-0.605-19.122-2.033-34.26-10.914-45.562-26.427-8.119-11.144-13.813-23.541-18.06-36.54-3.8-11.633-6.813-23.525-10.174-35.303V538.57c1.685-5.882 2.827-11.989 5.16-17.602 5.773-13.884 15.904-24.522 27.111-34.18 15.258-13.149 32.348-23.631 49.598-33.88 28.341-16.837 57.427-32.09 88.71-42.876 43.863-15.126 89.194-23.133 135.143-28.124 35.334-3.837 70.795-5.749 106.328-6.364 0.99-0.017 1.975-0.276 2.961-0.422h64.572c1.21 0.158 2.415 0.39 3.63 0.464 29.953 1.841 59.948 3.162 89.85 5.621 36.74 3.022 73.084 9.008 108.96 17.55 50.42 12.005 98.76 28.752 140.824 60.465 16.098 12.136 32.966 23.244 47.116 37.771 9.762 10.023 18.283 20.93 22.915 34.367 1.264 3.664 2.054 7.493 3.062 11.245v11.434c-2.247 8.518-4.386 17.067-6.767 25.547-3.96 14.098-7.752 28.271-14.933 41.205-7.544 13.59-18.826 22.28-34.091 25.443-5.777 1.198-11.68 1.782-17.525 2.645h-12.78c-1.32-0.179-2.636-0.417-3.962-0.527-6.81-0.56-13.654-0.823-20.427-1.67-40.25-5.04-79.28-15.285-117.685-28.065-20.007-6.657-32.68-20.496-37.337-40.945-2.172-9.532-3.213-19.45-3.582-29.236-0.711-18.863-9.015-32.775-25.447-41.673-5.863-3.176-12.145-5.79-18.511-7.78-21.149-6.612-43.062-8.482-65.04-8.72-40.114-0.435-80.235-0.31-120.352-0.329-22.538-0.01-45.041 0.722-67.264 4.955-13.706 2.61-27.02 6.413-38.847 14.187-11.667 7.67-19.07 18.225-20.775 32.225-0.893 7.327-0.843 14.764-1.545 22.12-2.531 26.52-15.224 45.5-40.72 55.293-37.85 14.54-77.097 23.11-117.208 28.14-6.095 0.764-12.212 1.354-18.319 2.025z" p-id="5460" fill="#ffffff"></path></symbol>
  <symbol id="history" viewBox="0 0 1024 1024"><path d="M512 149.333333a362.325333 362.325333 0 0 0-300.8 160H320a32 32 0 0 1 0 64H124.032V170.666667a32 32 0 1 1 64 0v63.658666A425.685333 425.685333 0 0 1 512 85.333333c235.648 0 426.666667 191.018667 426.666667 426.666667s-191.018667 426.666667-426.666667 426.666667S85.333333 747.648 85.333333 512a32 32 0 0 1 64 0A362.666667 362.666667 0 1 0 512 149.333333z" p-id="11044"></path><path d="M512 266.666667a32 32 0 0 1 32 32v200.106666l97.28 97.28a32 32 0 1 1-45.226667 45.226667l-116.053333-116.053333V298.666667a32 32 0 0 1 32-32z" p-id="11045"></path></symbol>
  <symbol id="idea" viewBox="0 0 1024 1024"><path d="M512 42.666667a341.333333 341.333333 0 0 0-203.861333 615.125333L341.333333 773.973333V853.333333a128 128 0 0 0 128 128h85.333334a128 128 0 0 0 128-128v-79.36l33.194666-116.181333A341.333333 341.333333 0 0 0 512 42.666667z m125.909333 577.28L607.829333 725.333333H416.170667l-30.08-105.386666a42.666667 42.666667 0 0 0-17.152-23.637334 256 256 0 1 1 286.122666 0 42.666667 42.666667 0 0 0-17.152 23.637334zM426.666667 853.333333v-42.666666h170.666666v42.666666a42.666667 42.666667 0 0 1-42.666666 42.666667h-85.333334a42.666667 42.666667 0 0 1-42.666666-42.666667zM350.890667 327.552a171.008 171.008 0 0 1 104.96-104.746667 42.666667 42.666667 0 0 1 28.074666 80.597334c-24.448 8.533333-43.946667 27.904-52.48 52.352a42.666667 42.666667 0 1 1-80.554666-28.16z" fill="#333333" p-id="7731"></path></symbol>
  <symbol id="laptop" viewBox="0 0 20 20" fill="currentColor"><path d="M9 16V6.414L5.707 9.707a1 1 0 1 1-1.414-1.414l5-5 .076-.068a1 1 0 0 1 1.338.068l5 5 .068.076a1 1 0 0 1-1.406 1.406l-.076-.068L11 6.414V16a1 1 0 1 1-2 0"/></symbol>
  <symbol id="mark" viewBox="0 0 1024 1024"><path d="M290.210909 919.272727a94.952727 94.952727 0 0 1-56.32-18.618182 93.090909 93.090909 0 0 1-37.236364-93.090909L228.305455 628.363636a23.272727 23.272727 0 0 0-7.214546-23.272727l-133.818182-128a93.090909 93.090909 0 0 1-23.272727-96.349091A93.090909 93.090909 0 0 1 139.636364 316.043636l186.181818-26.530909a25.367273 25.367273 0 0 0 19.083636-13.498182l82.850909-165.46909a95.418182 95.418182 0 0 1 170.356364 0l82.850909 165.46909a25.367273 25.367273 0 0 0 19.083636 13.498182l186.181819 26.530909a93.090909 93.090909 0 0 1 77.032727 64.698182 93.090909 93.090909 0 0 1-23.272727 96.349091L802.909091 605.090909a23.272727 23.272727 0 0 0-7.214546 21.410909l31.65091 181.527273a93.090909 93.090909 0 0 1-37.236364 93.090909 94.72 94.72 0 0 1-100.538182 7.68l-165.701818-85.643636a25.134545 25.134545 0 0 0-23.272727 0L334.429091 907.636364a96.349091 96.349091 0 0 1-44.218182 11.636363zM512 128a24.901818 24.901818 0 0 0-23.272727 13.730909l-82.385455 165.469091a94.72 94.72 0 0 1-71.447273 51.432727l-186.181818 26.530909a23.272727 23.272727 0 0 0-20.48 16.989091 23.272727 23.272727 0 0 0 6.283637 23.272728l134.050909 128.698181a93.090909 93.090909 0 0 1 27.461818 83.781819l-30.72 182.923636a23.272727 23.272727 0 0 0 9.774545 23.272727 25.134545 25.134545 0 0 0 27.229091 2.094546l165.701818-85.876364a96.116364 96.116364 0 0 1 87.97091 0l165.46909 86.109091a25.134545 25.134545 0 0 0 27.229091-2.094546 23.272727 23.272727 0 0 0 9.774546-23.272727l-31.650909-181.76a93.090909 93.090909 0 0 1 27.461818-83.781818l134.050909-128.698182a23.272727 23.272727 0 0 0 6.283636-23.272727 23.272727 23.272727 0 0 0-20.48-16.989091l-186.181818-26.530909a94.72 94.72 0 0 1-71.447273-51.432727L535.272727 141.730909a24.901818 24.901818 0 0 0-23.272727-13.730909z" fill="#2c2c2c" p-id="5702"></path></symbol>
  <symbol id="me" viewBox="0 0 1024 1024"><path d="M870.314316 877.390274 870.314316 877.390274C870.314316 877.390274 870.314316 877.390274 870.314316 877.390274 777.938121 967.974532 651.551687 1024 512 1024 229.239611 1024 0.017919 794.741738 0.017919 511.98135 0.017919 229.22096 229.239611-0.000731 512-0.000731 794.760389-0.000731 1023.982081 229.22096 1023.982081 511.98135 1023.982081 655.190051 965.067572 784.465527 870.314316 877.390274ZM512 950.859703C615.932362 950.859703 711.30731 914.545545 786.495536 854.131659 746.451223 740.398497 639.446968 658.261944 512 658.261944 384.553032 658.261944 277.548777 740.398497 237.504464 854.131659 312.69269 914.545545 408.067638 950.859703 512 950.859703ZM512 73.176136C269.649625 73.176136 73.158216 269.667545 73.158216 512.017919 73.158216 621.545515 113.53166 721.41859 179.869911 798.325613 237.723886 672.597442 364.512591 585.158216 512 585.158216 659.450839 585.158216 786.276114 672.597442 844.130089 798.325613 910.46834 721.45516 950.841784 621.545515 950.841784 512.017919 950.841784 269.667545 754.350375 73.176136 512 73.176136ZM512 548.588068C410.993249 548.588068 329.149257 466.707505 329.149257 365.737325 329.149257 264.730574 410.993249 182.886582 512 182.886582 612.97018 182.886582 694.850743 264.730574 694.850743 365.737325 694.850743 466.707505 612.97018 548.588068 512 548.588068ZM512 256.026879C451.403264 256.026879 402.289554 305.140589 402.289554 365.700754 402.289554 426.297491 451.403264 475.411201 512 475.411201 572.596736 475.411201 621.710446 426.297491 621.710446 365.700754 621.710446 305.140589 572.596736 256.026879 512 256.026879Z" fill="#272636" p-id="7568"></path></symbol>
  <symbol id="out" viewBox="0 0 20 20" fill="currentColor"><path d="M3.50171 12.6663V7.33333C3.50171 6.64424 3.50106 6.08728 3.53784 5.63704C3.57525 5.17925 3.65463 4.77342 3.84644 4.39681L3.96851 4.17806C4.2726 3.68235 4.70919 3.2785 5.23023 3.01302L5.3728 2.94661C5.7091 2.80238 6.06981 2.73717 6.47046 2.70443C6.9207 2.66764 7.47766 2.66829 8.16675 2.66829H9.16675L9.30054 2.68197C9.60367 2.7439 9.83179 3.0119 9.83179 3.33333C9.83179 3.65476 9.60367 3.92277 9.30054 3.9847L9.16675 3.99837H8.16675C7.45571 3.99837 6.96238 3.99926 6.57886 4.0306C6.297 4.05363 6.10737 4.09049 5.96362 4.14193L5.83374 4.19857C5.53148 4.35259 5.27861 4.58671 5.1023 4.87435L5.03198 5.00032C4.95147 5.15833 4.89472 5.36974 4.86401 5.74544C4.83268 6.12896 4.83179 6.6223 4.83179 7.33333V12.6663C4.83179 13.3772 4.8327 13.8707 4.86401 14.2542C4.8947 14.6298 4.95153 14.8414 5.03198 14.9993L5.1023 15.1263C5.27861 15.4137 5.53163 15.6482 5.83374 15.8021L5.96362 15.8577C6.1074 15.9092 6.29691 15.947 6.57886 15.9701C6.96238 16.0014 7.45571 16.0013 8.16675 16.0013H9.16675L9.30054 16.015C9.6036 16.0769 9.83163 16.345 9.83179 16.6663C9.83179 16.9877 9.60363 17.2558 9.30054 17.3177L9.16675 17.3314H8.16675C7.47766 17.3314 6.9207 17.332 6.47046 17.2952C6.06978 17.2625 5.70912 17.1973 5.3728 17.0531L5.23023 16.9867C4.70911 16.7211 4.27261 16.3174 3.96851 15.8216L3.84644 15.6038C3.65447 15.2271 3.57526 14.8206 3.53784 14.3626C3.50107 13.9124 3.50171 13.3553 3.50171 12.6663ZM13.8035 13.804C13.5438 14.0634 13.1226 14.0635 12.863 13.804C12.6033 13.5443 12.6033 13.1223 12.863 12.8626L13.8035 13.804ZM12.863 6.19661C13.0903 5.96939 13.4409 5.94126 13.699 6.11165L13.8035 6.19661L17.1375 9.52962C17.3969 9.78923 17.3968 10.2104 17.1375 10.4701L13.8035 13.804L13.3337 13.3333L12.863 12.8626L15.0603 10.6654H9.16675C8.79959 10.6654 8.50189 10.3674 8.50171 10.0003C8.50171 9.63306 8.79948 9.33529 9.16675 9.33529H15.0613L12.863 7.13704L12.7781 7.03255C12.6077 6.77449 12.6359 6.42386 12.863 6.19661Z"></path></symbol>
  <symbol id="refresh" viewBox="0 0 20 20" fill="currentColor"><path d="M3.502 16.666v-3.333c0-.367.298-.665.665-.665H7.5l.134.014a.665.665 0 0 1 0 1.303l-.134.013H5.475A6.12 6.12 0 0 0 10 16.001c3.06 0 5.586-2.29 5.955-5.25l.03-.131a.665.665 0 0 1 1.29.295l-.05.337A7.33 7.33 0 0 1 10 17.332a7.46 7.46 0 0 1-5.168-2.085v1.42a.665.665 0 0 1-1.33 0m.543-7.417a.665.665 0 0 1-1.32-.165zM10 2.67c1.994 0 3.837.797 5.178 2.093V3.333a.665.665 0 0 1 1.33 0v3.333a.665.665 0 0 1-.665.665H12.51a.665.665 0 0 1 0-1.33h2.015A6.12 6.12 0 0 0 10 3.998 6.003 6.003 0 0 0 4.045 9.25l-.66-.083-.66-.082A7.333 7.333 0 0 1 10 2.668"/></symbol>
  <symbol id="resize-corner" viewBox="0 0 1024 1024"><path d="M618.29 810.583c-11.716-11.716-11.716-30.711 0-42.426l149.281-149.281c11.716-11.716 30.711-11.716 42.426 0 11.716 11.716 11.716 30.711 0 42.426L660.716 810.583c-11.715 11.715-30.71 11.715-42.426 0zM426.936 810.936c-11.716-11.716-11.716-30.711 0-42.426l340.998-340.998c11.716-11.716 30.711-11.716 42.426 0 11.716 11.716 11.716 30.711 0 42.426L469.363 810.936c-11.716 11.716-30.711 11.716-42.427 0z" fill="#231815" p-id="12835"></path></symbol>
  <symbol id="search" viewBox="0 0 1024 1024"><path d="M894.3872 819.013632 655.1552 576.60928c52.4288-55.12704 72.761344-122.871808 72.761344-205.053952 0-169.146368-130.610176-305.958912-298.596352-305.958912-167.962624 0-304.633856 137.617408-304.633856 306.763776 0 169.147392 134.541312 299.305984 302.50496 299.305984 70.132736 0 136.737792-16.780288 188.269568-57.020416l240.959488 244.130816c4.405248 4.451328 10.180608 6.677504 15.954944 6.677504 5.776384 0 15.337472-6.816768 19.739648-11.266048C900.921344 845.33248 903.1936 827.913216 894.3872 819.013632zM172.831744 368.572416c0-140.362752 113.378304-254.498816 252.724224-254.498816 139.368448 0 252.7488 114.136064 252.7488 254.498816 0 140.316672-113.381376 254.49984-252.7488 254.49984C286.210048 623.072256 172.831744 508.889088 172.831744 368.572416z" p-id="7820"></path></symbol>
  <symbol id="setting" viewBox="0 0 20 20" fill="currentColor"><path d="M10.3227 1.62663C11.1514 1.62663 11.9182 2.066 12.3373 2.78092L13.1586 4.18131L13.2123 4.25065C13.2735 4.31105 13.3565 4.34658 13.4448 4.34733L15.06 4.36002L15.2143 4.36686C15.9825 4.4239 16.6774 4.85747 17.0649 5.53092L17.393 6.10221L17.4662 6.23795C17.7814 6.88041 17.7842 7.63306 17.4741 8.27799L17.4028 8.41373L16.6 9.83561C16.5426 9.93768 16.5425 10.0627 16.6 10.1647L17.4028 11.5856L17.4741 11.7223C17.7841 12.3673 17.7815 13.1199 17.4662 13.7624L17.393 13.8981L17.0649 14.4694C16.6774 15.1427 15.9824 15.5764 15.2143 15.6335L15.06 15.6393L13.4448 15.653C13.3565 15.6537 13.2736 15.6892 13.2123 15.7497L13.1586 15.818L12.3373 17.2194C11.9182 17.9342 11.1513 18.3737 10.3227 18.3737H9.6762C8.8995 18.3735 8.17705 17.9874 7.74456 17.3503L7.66253 17.2194L6.84124 15.818C6.79652 15.7418 6.72408 15.6876 6.64105 15.6647L6.55511 15.653L4.93987 15.6393C4.16288 15.633 3.44339 15.2413 3.01605 14.6003L2.93499 14.4694L2.60687 13.8981C2.19555 13.1831 2.1916 12.3039 2.5971 11.5856L3.39886 10.1647L3.43206 10.0846C3.44649 10.0293 3.44644 9.97102 3.43206 9.91569L3.39886 9.83561L2.5971 8.41373C2.19175 7.6955 2.19562 6.8171 2.60687 6.10221L2.93499 5.53092L3.01605 5.40006C3.44337 4.75894 4.1628 4.36636 4.93987 4.36002L6.55511 4.34733L6.64105 4.33561C6.72418 4.31275 6.79651 4.25762 6.84124 4.18131L7.66253 2.78092L7.74456 2.65006C8.17704 2.01277 8.89941 1.62678 9.6762 1.62663H10.3227ZM9.6762 2.9567C9.36439 2.95685 9.07299 3.10138 8.88421 3.34342L8.80999 3.45377L7.9887 4.85416C7.72933 5.29669 7.28288 5.59093 6.78265 5.6608L6.56585 5.67741L4.95062 5.6901C4.63868 5.69265 4.34845 5.84001 4.16155 6.08366L4.08733 6.19401L3.75921 6.7653C3.58227 7.073 3.5808 7.45131 3.7553 7.76041L4.55706 9.18131L4.65179 9.37663C4.81309 9.77605 4.81294 10.2232 4.65179 10.6227L4.55706 10.819L3.7553 12.2399C3.58083 12.549 3.5822 12.9273 3.75921 13.235L4.08733 13.8053L4.16155 13.9157C4.34844 14.1596 4.6385 14.3067 4.95062 14.3092L6.56585 14.3229L6.78265 14.3385C7.28292 14.4084 7.72931 14.7036 7.9887 15.1462L8.80999 16.5465L8.88421 16.6559C9.07298 16.8982 9.36422 17.0435 9.6762 17.0436H10.3227C10.6793 17.0436 11.0095 16.8542 11.1899 16.5465L12.0112 15.1462L12.1332 14.9655C12.4432 14.5668 12.9212 14.3271 13.434 14.3229L15.0492 14.3092L15.1811 14.2995C15.4854 14.2567 15.7569 14.076 15.9125 13.8053L16.2407 13.235L16.2983 13.1169C16.3983 12.8745 16.3999 12.6023 16.3022 12.359L16.2446 12.2399L15.4418 10.819C15.1551 10.311 15.1551 9.6893 15.4418 9.18131L16.2446 7.76041L16.3022 7.64127C16.4 7.39806 16.3982 7.12584 16.2983 6.88346L16.2407 6.7653L15.9125 6.19401C15.7568 5.92338 15.4855 5.74264 15.1811 5.69987L15.0492 5.6901L13.434 5.67741C12.9212 5.67322 12.4432 5.43341 12.1332 5.03483L12.0112 4.85416L11.1899 3.45377C11.0095 3.14604 10.6794 2.9567 10.3227 2.9567H9.6762ZM11.5854 9.99967C11.5852 9.12461 10.8755 8.41497 10.0004 8.41471C9.12516 8.41471 8.41466 9.12445 8.41448 9.99967C8.41448 10.875 9.12505 11.5846 10.0004 11.5846C10.8756 11.5844 11.5854 10.8749 11.5854 9.99967ZM12.9145 9.99967C12.9145 11.6094 11.6101 12.9145 10.0004 12.9147C8.39051 12.9147 7.08538 11.6096 7.08538 9.99967C7.08556 8.38991 8.39062 7.08463 10.0004 7.08463C11.61 7.08489 12.9143 8.39007 12.9145 9.99967Z"></path></symbol>
  <symbol id="sidebar" viewBox="0 0 1024 1024"><path d="M0 219.428571v585.142858a102.985143 102.985143 0 0 0 102.4 102.4h819.2A102.985143 102.985143 0 0 0 1024 804.571429V219.428571a102.985143 102.985143 0 0 0-102.4-102.4H102.4A102.985143 102.985143 0 0 0 0 219.428571z m87.771429 585.142858V219.428571c0-8.045714 6.582857-14.628571 14.628571-14.628571H292.571429v614.4H102.4a14.628571 14.628571 0 0 1-14.628571-14.628571z m848.457142-585.142858v585.142858a14.628571 14.628571 0 0 1-14.628571 14.628571H380.342857V204.8h541.257143c8.045714 0 14.628571 6.582857 14.628571 14.628571z" p-id="1646"></path></symbol>
  <symbol id="sliders" viewBox="0 0 20 20" fill="currentColor"><path fill-rule="evenodd" clip-rule="evenodd" d="M7.917 3.333c.69 0 1.25.56 1.25 1.25v10.834a1.25 1.25 0 1 1-2.5 0V4.583c0-.69.56-1.25 1.25-1.25m4.166 2.5c.69 0 1.25.56 1.25 1.25v5.834a1.25 1.25 0 1 1-2.5 0V7.083c0-.69.56-1.25 1.25-1.25M3.75 7.5C4.44 7.5 5 8.06 5 8.75v2.5a1.25 1.25 0 0 1-2.5 0v-2.5c0-.69.56-1.25 1.25-1.25m12.5 0c.69 0 1.25.56 1.25 1.25v2.5a1.25 1.25 0 0 1-2.5 0v-2.5c0-.69.56-1.25 1.25-1.25"/></symbol>
  <symbol id="translate" viewBox="0 0 1024 1024"><path d="M832 426.666667a64 64 0 0 1 64 64v341.333333a64 64 0 0 1-64 64h-341.333333a64 64 0 0 1-64-64v-341.333333a64 64 0 0 1 64-64h341.333333z m-265.130667 358.4h44.757334l16.554666-46.037334h85.930667l16.512 45.994667h47.274667l-76.544-218.026667h-55.552l-78.933334 218.026667z m135.594667-82.517334h-62.549333l31.829333-93.141333h1.152l29.568 93.141333z" fill="#1B7AFE" p-id="2255"></path><path d="M841.130667 347.434667H786.346667a109.696 109.696 0 0 0-109.696-109.696V182.869333a164.565333 164.565333 0 0 1 164.522666 164.565334zM182.869333 676.608H237.653333a109.696 109.696 0 0 0 109.696 109.653333v54.869334a164.565333 164.565333 0 0 1-164.522666-164.522667zM539.477333 106.666667v0.042666a76.074667 76.074667 0 0 1 70.4 47.018667c3.84 9.216 5.76 19.114667 5.76 29.098667v356.608l-0.426666 7.424a76.032 76.032 0 0 1-75.733334 68.778666H182.826667v-0.042666a76.074667 76.074667 0 0 1-70.4-47.018667 76.117333 76.117333 0 0 1-5.76-29.141333V182.826667a76.117333 76.117333 0 0 1 76.16-76.117334l356.650666-0.042666zM179.541333 149.504a33.408 33.408 0 0 0-30.208 33.322667v356.650666l0.170667 3.285334a33.365333 33.365333 0 0 0 33.322667 30.208h356.650666a33.450667 33.450667 0 0 0 33.493334-33.493334V182.826667l-0.170667-3.285334a33.28 33.28 0 0 0-30.037333-30.037333l-3.285334-0.170667H182.826667l-3.285334 0.170667z" fill="#252525" p-id="2256"></path><path d="M237.696 419.626667h40.064v-21.248h57.770667v101.376h42.410666V398.421333h59.093334v17.706667h43.605333v-134.4H377.941333v-29.525333a63.061333 63.061333 0 0 1 3.584-22.4 9.045333 9.045333 0 0 0 1.152-3.541334c0-0.768-2.730667-1.536-8.234666-2.346666h-40.106667v57.813333H237.653333v137.898667z m40.064-104.874667h57.770667v51.84H277.802667L277.76 314.752z m159.146667 51.84H377.856V314.794667h59.050667v51.797333z" fill="#252525" p-id="2257"></path></symbol>
</svg>