<?xml version="1.0" standalone="no"?><!DOCTYPE svg PUBLIC "-//W3C//DTD SVG 1.1//EN" "http://www.w3.org/Graphics/SVG/1.1/DTD/svg11.dtd"><svg t="1765633929876" class="icon" viewBox="0 0 1024 1024" version="1.1" xmlns="http://www.w3.org/2000/svg" p-id="12363" xmlns:xlink="http://www.w3.org/1999/xlink" width="200" height="200"><path d="M532.8 134.464c-12.16-35.392-32-35.328-44.032 0.128l-67.84 200c-12.096 35.456-50.88 74.24-86.336 86.336l-198.528 67.52c-35.456 12.032-35.52 32-0.192 44.288l197.376 68.672c35.328 12.288 74.24 51.328 86.4 86.72l68.864 200.192c12.16 35.392 31.872 35.328 43.84-0.128l67.264-199.36c11.968-35.456 50.688-74.368 86.08-86.464l201.664-69.12c35.392-12.096 35.392-31.808-0.064-43.776l-198.464-67.2c-35.456-11.968-74.432-50.688-86.592-86.08L532.8 134.464zM883.648 111.552c-3.456-10.112-9.152-10.112-12.608 0l-19.392 57.216a44.672 44.672 0 0 1-24.64 24.64l-56.704 19.264c-10.112 3.456-10.176 9.152 0 12.672l56.32 19.648a45.44 45.44 0 0 1 24.704 24.768l19.648 57.216c3.52 10.112 9.152 10.048 12.544-0.064l19.2-56.96a44.672 44.672 0 0 1 24.64-24.704l57.6-19.712c10.112-3.52 10.112-9.152 0-12.544l-56.704-19.2a44.8 44.8 0 0 1-24.768-24.576l-19.84-57.6z" p-id="12364"></path></svg>