<svg xmlns="http://www.w3.org/2000/svg" version="1.1" xmlns:xlink="http://www.w3.org/1999/xlink" width="1000" height="1000"><metadata><rdf:RDF xmlns:rdf="http://www.w3.org/1999/02/22-rdf-syntax-ns#" xmlns:dc="http://purl.org/dc/elements/1.1/"><rdf:Description><dc:creator>RealFaviconGenerator</dc:creator><dc:source>https://realfavicongenerator.net</dc:source></rdf:Description></rdf:RDF></metadata><style>
    #light-icon {
      display: inline;
    }
    #dark-icon {
      display: none;
    }

    @media (prefers-color-scheme: dark) {
      #light-icon {
        display: none;
      }
      #dark-icon {
        display: inline;
      }
    }
  </style><g id="light-icon"><svg xmlns="http://www.w3.org/2000/svg" version="1.1" xmlns:xlink="http://www.w3.org/1999/xlink" width="1000" height="1000"><g clip-path="url(#SvgjsClipPath1020)"><rect width="1000" height="1000" fill="#ffffff"></rect><g transform="matrix(1.5283842794759825,0,0,1.5283842794759825,152.29257641921396,150)"><svg xmlns="http://www.w3.org/2000/svg" version="1.1" width="455" height="458"><path d="M0 0 C0.805071458816542 -0.0012088108062737746 1.610142917633084 -0.0024176216125493255 2.439610481262207 -0.0036630630493164063 C35.66992780475789 0.006725433552576376 67.72379422677704 7.002956705952425 96.966796875 23.025634765625 C98.04574218750003 23.613447265625 99.1246875 24.201259765624997 100.236328125 24.806884765625 C110.90776908284494 30.834399555678623 120.52896655145855 38.2394247487033 129.966796875 46.025634765625 C130.678359375 46.612158203125 131.38992187500003 47.198681640625 132.123046875 47.802978515625 C136.2096644056116 51.268744536778286 139.81425923946267 54.932776309204144 143.271484375 59.025634765625 C144.3331409266554 60.27809595098806 145.41860954826234 61.51116480256364 146.537109375 62.713134765625 C157.27223552948357 74.32988963810965 165.4565963293665 87.68448609239906 171.966796875 102.025634765625 C172.49789062500003 103.150986328125 173.028984375 104.276337890625 173.576171875 105.435791015625 C192.03266675032222 146.10667534139944 192.881668343711 194.9802981752804 177.3779296875 236.726806640625 C169.9843756523511 255.66233416955833 159.94013143364174 272.92719849557966 146.037109375 287.799072265625 C144.15883719830447 289.81910083301455 142.40849668997447 291.89856156002793 140.654296875 294.025634765625 C128.60026918442725 307.7977077822104 112.00210744443825 317.5872001368254 95.966796875 326.025634765625 C95.31791503906248 326.369814453125 94.66903320312503 326.713994140625 94.00048828125 327.068603515625 C75.26584352297323 336.8554281979572 54.75663643117849 342.63419677615826 33.966796875 346.025634765625 C33.16323257446288 346.16008499145505 32.35966827392576 346.29453521728516 31.531753540039063 346.4330596923828 C10.322541987687487 349.84220894400505 -11.018270879861007 349.51154564506055 -32.435791015625 349.57861328125 C-40.29463552673187 349.6037874032979 -48.153302055250236 349.6439785703579 -56.01198196411133 349.7005138397217 C-58.7096436652582 349.7164673907175 -61.407125580865795 349.72058276379 -64.10482788085938 349.72352600097656 C-79.85726743663832 349.7902668108583 -95.4066421952219 350.88864951303026 -110.720703125 354.775634765625 C-111.25050781250002 354.9071997070313 -111.25050781250002 354.9071997070313 -113.931640625 355.572998046875 C-122.57794296547067 357.7832814862249 -130.85209747700367 360.4684497123124 -139.033203125 364.025634765625 C-139.37287109375 364.1711376953125 -139.37287109375 364.1711376953125 -141.091796875 364.907470703125 C-155.46576997493548 371.13839023497775 -169.0017984859466 378.940791290205 -181.033203125 389.025634765625 C-182.0708762851608 389.8786055110708 -183.1086441903457 390.73146100274636 -184.146484375 391.584228515625 C-194.43426268712426 400.0977356445347 -203.22773161735955 409.09079629763556 -211.400390625 419.646728515625 C-224.38694284499942 436.38318280059184 -224.38694284499942 436.38318280059184 -234.720703125 438.025634765625 C-237.60470789884604 438.1844784020503 -239.12622418208844 437.9932796153334 -241.908203125 437.025634765625 C-246.2285646511604 432.95941215276815 -247.20360673839735 428.38680754401526 -247.41351985931396 422.65544986724854 C-247.43126783121207 420.5110183117854 -247.43256498061436 418.36641226745905 -247.42088317871094 416.22193908691406 C-247.4262687164545 415.03641085088253 -247.43165425419807 413.850882614851 -247.43720299005508 412.6294292807579 C-247.44901115821855 409.35081029577555 -247.4474217955212 406.07251833137707 -247.4400361776352 402.7938965559006 C-247.43529883687125 399.2522629975841 -247.4478203241688 395.7106835162298 -247.4580535888672 392.1690673828125 C-247.47524419145125 385.23100102208457 -247.47607992577522 378.2930252305352 -247.47084068506956 371.3549431040883 C-247.4667931086156 365.7055162849058 -247.4682495691314 360.05611614861397 -247.47358894348145 354.4066905975342 C-247.47433736551554 353.60138753365726 -247.4750857875496 352.79608446978034 -247.47585688903928 351.9663782827556 C-247.4773884846355 350.330005564936 -247.47892683257413 348.6936328534228 -247.4804718568921 347.0572601482272 C-247.49420141757977 331.70768329391603 -247.4887592241646 316.358157383896 -247.47728664427996 301.00858169049025 C-247.46738528456794 287.015459610248 -247.4802402782133 273.02247035000374 -247.50422083586454 259.0293687656522 C-247.52871241279257 244.62813949627937 -247.53819320820654 230.22697180397 -247.53156810998917 215.82572215795517 C-247.52809404078872 207.75431047916197 -247.53018518956281 199.68300047519287 -247.54781913757324 191.61160469055176 C-247.56266877126612 184.72945335643158 -247.56301418979646 177.8474750071273 -247.54574822634459 170.9653266146779 C-247.53733329851173 167.46456090912557 -247.53484866810803 163.9641024173748 -247.55039978027344 160.46335411071777 C-247.71119999912077 114.63984478409729 -235.1813208514044 75.78202913991166 -202.970703125 42.713134765625 C-188.70087492207253 28.86562235063463 -171.64397205862338 18.02504812036228 -153.033203125 11.025634765625 C-151.81375 10.566728515625002 -150.594296875 10.107822265625 -149.337890625 9.635009765625 C-133.67070598449487 4.113241930542509 -117.76459175258572 0.9300679651253638 -101.149169921875 0.8203125 C-100.20462448120117 0.8104129028320308 -99.26007904052733 0.8005133056640616 -98.28691101074219 0.790313720703125 C-95.18543933042582 0.7589156165225983 -92.08395301493172 0.7339949656291829 -88.982421875 0.709228515625 C-86.8011693554185 0.6886083082740608 -84.61992037416442 0.6676107103211173 -82.43867492675781 0.6462554931640625 C-76.70074584007148 0.5912102365380605 -70.9627810656524 0.54179039986772 -65.22479248046875 0.493408203125 C-60.59138893802094 0.45337810162782866 -55.95802834545654 0.4092912845126335 -51.32466411590576 0.3649740219116211 C-45.73143005075687 0.3115942782755674 -40.1381783466079 0.260199619638831 -34.544921875 0.209228515625 C-34.02474078178406 0.20444960594177175 -34.02474078178406 0.20444960594177175 -31.392309188842773 0.1802654266357422 C-20.928253480154297 0.08568814405121827 -10.464519692469167 0.008846756067752537 0 0 Z M-180.375 78.101318359375 C-184.6166086761292 83.02363278594308 -187.91805337275366 88.3398533072567 -191.033203125 94.025634765625 C-191.3503125 94.604423828125 -191.3503125 94.604423828125 -192.955078125 97.533447265625 C-196.49200945552886 104.35633188220369 -198.9156167676955 111.34407669362771 -200.845703125 118.775634765625 C-201.040673828125 119.51185058593751 -201.23564453125 120.24806640625002 -201.4365234375 121.006591796875 C-205.20307639124744 136.76034899231067 -205.32382565660347 153.08301790535248 -205.26025390625 169.1845703125 C-205.2596880815362 171.22675572091606 -205.26000968379412 173.26894153438838 -205.26113891601563 175.31112670898438 C-205.26170675102168 180.7912684794294 -205.25004588811353 186.27132057080476 -205.23599100112915 191.75144171714783 C-205.22338750779633 197.5022431976626 -205.2223056293911 203.25304731191443 -205.21994018554688 209.0038604736328 C-205.21375343604723 219.8653244593365 -205.19738104264945 230.7267476124646 -205.17724120616913 241.58819371461868 C-205.15479430054512 253.9656603357513 -205.14386678168327 266.3431290287481 -205.13385033607483 278.7206109762192 C-205.11301196940605 304.1556414385837 -205.0778912279944 329.5906358018195 -205.033203125 355.025634765625 C-201.95672344058627 352.602141427704 -199.22795598560347 350.28682678679644 -196.720703125 347.275634765625 C-184.17148973084804 332.75058777324483 -169.355436457907 322.18840604486087 -152.033203125 314.025634765625 C-150.8691796875 313.472626953125 -149.70515625000002 312.919619140625 -148.505859375 312.349853515625 C-140.73537669019964 308.9672024481135 -132.8119678400493 306.79093336821535 -124.595703125 304.775634765625 C-124.09586914062498 304.65240844726566 -124.09586914062498 304.65240844726566 -121.56640625 304.02880859375 C-106.58881125313363 300.5366920297643 -91.93136240108896 299.7294785886741 -76.6184310913086 299.6901092529297 C-73.43587472612293 299.6816680611975 -70.25358518731912 299.66102749167504 -67.07110595703125 299.6375732421875 C-60.30851245403798 299.58980519866765 -53.54589166020668 299.5566114878441 -46.783203125 299.525634765625 C-38.94663235877712 299.48965701170084 -31.11019433519064 299.44731310581926 -23.27375030517578 299.3896942138672 C-20.176763354722794 299.36999961384925 -17.07988476826128 299.3613840411925 -13.98284912109375 299.3533935546875 C31.665026846116234 299.1102678887791 76.05916642918476 288.286571872945 109.576171875 255.568603515625 C119.77161131054987 245.1838202048435 127.13632826245055 233.28723044185128 132.966796875 220.025634765625 C133.4476171875 218.960869140625 133.92843749999997 217.896103515625 134.423828125 216.799072265625 C139.4341996882123 204.8407836404356 142.48743292782336 191.0084083349922 142.966796875 178.025634765625 C143.018359375 176.898994140625 143.06992187499998 175.772353515625 143.123046875 174.611572265625 C143.9937619408052 138.4043374458916 130.6781804902078 106.20238344696375 105.966796875 80.025634765625 C80.44308546848532 54.186815810881725 43.628769937671166 40.438784018614264 7.6156463623046875 39.88519287109375 C5.674370935714023 39.873327114629674 3.7330584935951947 39.866699114054555 1.791748046875 39.864501953125 C0.7218664550781568 39.859537048339845 -0.3480151367187432 39.85457214355469 -1.4503173828125 39.849456787109375 C-4.963629801625416 39.83494423564258 -8.47689699433198 39.82804947371945 -11.990234375 39.822509765625 C-13.20153203964233 39.819682388305665 -14.412829704284661 39.81685501098633 -15.660833358764648 39.813941955566406 C-22.078171687198335 39.798989364260024 -28.495487786002087 39.78973656323321 -34.912841796875 39.785400390625 C-41.48413762446859 39.779938639436914 -48.05522386961775 39.755947696269686 -54.62645435333252 39.7274284362793 C-59.728841741104645 39.70863814635615 -64.831180435058 39.703587696234315 -69.9335994720459 39.702064514160156 C-72.35287298505364 39.69907150078974 -74.77214635273566 39.691159171723854 -77.19138526916504 39.677879333496094 C-117.37255200309127 39.47315333106488 -152.38378870568152 47.37647135921858 -180.375 78.101318359375 Z " fill="#000000" transform="translate(257.033203125,9.974365234375)"></path><path d="M0 0 C6.69632422550319 3.9731523737985697 11.98473438886407 9.477499053483996 14.625 16.875 C16.502447031963584 24.713950919172646 15.935570522506083 33.20628343610957 11.84765625 40.25390625 C7.397042128573389 46.517232505989426 2.142723648700837 51.189738863262164 -5.4375 53.0625 C-16.136380037034883 54.142203489976 -23.84284007875604 53.22683432814338 -32.1875 46.4375 C-38.15440794473696 40.861527403366495 -40.928472484000366 34.050969656796525 -41.75 26 C-41.023950402740155 16.851775074526074 -37.45057148279909 9.046626632040926 -30.4375 3.0625 C-21.71089497070244 -3.4427873854763504 -9.959710326232965 -4.404371130398857 0 0 Z " fill="#000000" transform="translate(174.4375,153.9375)"></path><path d="M0 0 C5.470334032166988 4.110196532336005 10.764432708454194 9.727200543754662 12.15234375 16.6171875 C13.172364112324999 27.17439825006352 11.911616239816851 34.897144168339594 5.52734375 43.3671875 C0.7256931758213341 48.47862198219022 -4.537362308078173 51.21487032582186 -11.51171875 52.0625 C-21.115103984004918 52.35117891484984 -27.249634531524293 50.712009810512484 -35.09765625 45.4296875 C-42.13527103214943 38.23212692734717 -44.27135425941037 30.639465784512055 -44.19921875 20.79296875 C-43.447144982780515 13.99923571945061 -39.65212528088921 7.421656530889209 -34.84765625 2.6171875 C-24.71912562144547 -4.743297490937124 -11.149768716922381 -6.56741784657325 0 0 Z " fill="#000000" transform="translate(303.84765625,155.3828125)"></path></svg></g></g><defs><clipPath id="SvgjsClipPath1020"><rect width="1000" height="1000" x="0" y="0" rx="250" ry="250"></rect></clipPath></defs></svg></g><g id="dark-icon"><svg xmlns="http://www.w3.org/2000/svg" version="1.1" xmlns:xlink="http://www.w3.org/1999/xlink" width="1000" height="1000"><g><g transform="matrix(2.183406113537118,0,0,2.183406113537118,3.2751091703056545,-5.684341886080802e-14)"><svg xmlns="http://www.w3.org/2000/svg" version="1.1" width="455" height="458"><path d="M0 0 C0.805071458816542 -0.0012088108062737746 1.610142917633084 -0.0024176216125493255 2.439610481262207 -0.0036630630493164063 C35.66992780475789 0.006725433552576376 67.72379422677704 7.002956705952425 96.966796875 23.025634765625 C98.04574218750003 23.613447265625 99.1246875 24.201259765624997 100.236328125 24.806884765625 C110.90776908284494 30.834399555678623 120.52896655145855 38.2394247487033 129.966796875 46.025634765625 C130.678359375 46.612158203125 131.38992187500003 47.198681640625 132.123046875 47.802978515625 C136.2096644056116 51.268744536778286 139.81425923946267 54.932776309204144 143.271484375 59.025634765625 C144.3331409266554 60.27809595098806 145.41860954826234 61.51116480256364 146.537109375 62.713134765625 C157.27223552948357 74.32988963810965 165.4565963293665 87.68448609239906 171.966796875 102.025634765625 C172.49789062500003 103.150986328125 173.028984375 104.276337890625 173.576171875 105.435791015625 C192.03266675032222 146.10667534139944 192.881668343711 194.9802981752804 177.3779296875 236.726806640625 C169.9843756523511 255.66233416955833 159.94013143364174 272.92719849557966 146.037109375 287.799072265625 C144.15883719830447 289.81910083301455 142.40849668997447 291.89856156002793 140.654296875 294.025634765625 C128.60026918442725 307.7977077822104 112.00210744443825 317.5872001368254 95.966796875 326.025634765625 C95.31791503906248 326.369814453125 94.66903320312503 326.713994140625 94.00048828125 327.068603515625 C75.26584352297323 336.8554281979572 54.75663643117849 342.63419677615826 33.966796875 346.025634765625 C33.16323257446288 346.16008499145505 32.35966827392576 346.29453521728516 31.531753540039063 346.4330596923828 C10.322541987687487 349.84220894400505 -11.018270879861007 349.51154564506055 -32.435791015625 349.57861328125 C-40.29463552673187 349.6037874032979 -48.153302055250236 349.6439785703579 -56.01198196411133 349.7005138397217 C-58.7096436652582 349.7164673907175 -61.407125580865795 349.72058276379 -64.10482788085938 349.72352600097656 C-79.85726743663832 349.7902668108583 -95.4066421952219 350.88864951303026 -110.720703125 354.775634765625 C-111.25050781250002 354.9071997070313 -111.25050781250002 354.9071997070313 -113.931640625 355.572998046875 C-122.57794296547067 357.7832814862249 -130.85209747700367 360.4684497123124 -139.033203125 364.025634765625 C-139.37287109375 364.1711376953125 -139.37287109375 364.1711376953125 -141.091796875 364.907470703125 C-155.46576997493548 371.13839023497775 -169.0017984859466 378.940791290205 -181.033203125 389.025634765625 C-182.0708762851608 389.8786055110708 -183.1086441903457 390.73146100274636 -184.146484375 391.584228515625 C-194.43426268712426 400.0977356445347 -203.22773161735955 409.09079629763556 -211.400390625 419.646728515625 C-224.38694284499942 436.38318280059184 -224.38694284499942 436.38318280059184 -234.720703125 438.025634765625 C-237.60470789884604 438.1844784020503 -239.12622418208844 437.9932796153334 -241.908203125 437.025634765625 C-246.2285646511604 432.95941215276815 -247.20360673839735 428.38680754401526 -247.41351985931396 422.65544986724854 C-247.43126783121207 420.5110183117854 -247.43256498061436 418.36641226745905 -247.42088317871094 416.22193908691406 C-247.4262687164545 415.03641085088253 -247.43165425419807 413.850882614851 -247.43720299005508 412.6294292807579 C-247.44901115821855 409.35081029577555 -247.4474217955212 406.07251833137707 -247.4400361776352 402.7938965559006 C-247.43529883687125 399.2522629975841 -247.4478203241688 395.7106835162298 -247.4580535888672 392.1690673828125 C-247.47524419145125 385.23100102208457 -247.47607992577522 378.2930252305352 -247.47084068506956 371.3549431040883 C-247.4667931086156 365.7055162849058 -247.4682495691314 360.05611614861397 -247.47358894348145 354.4066905975342 C-247.47433736551554 353.60138753365726 -247.4750857875496 352.79608446978034 -247.47585688903928 351.9663782827556 C-247.4773884846355 350.330005564936 -247.47892683257413 348.6936328534228 -247.4804718568921 347.0572601482272 C-247.49420141757977 331.70768329391603 -247.4887592241646 316.358157383896 -247.47728664427996 301.00858169049025 C-247.46738528456794 287.015459610248 -247.4802402782133 273.02247035000374 -247.50422083586454 259.0293687656522 C-247.52871241279257 244.62813949627937 -247.53819320820654 230.22697180397 -247.53156810998917 215.82572215795517 C-247.52809404078872 207.75431047916197 -247.53018518956281 199.68300047519287 -247.54781913757324 191.61160469055176 C-247.56266877126612 184.72945335643158 -247.56301418979646 177.8474750071273 -247.54574822634459 170.9653266146779 C-247.53733329851173 167.46456090912557 -247.53484866810803 163.9641024173748 -247.55039978027344 160.46335411071777 C-247.71119999912077 114.63984478409729 -235.1813208514044 75.78202913991166 -202.970703125 42.713134765625 C-188.70087492207253 28.86562235063463 -171.64397205862338 18.02504812036228 -153.033203125 11.025634765625 C-151.81375 10.566728515625002 -150.594296875 10.107822265625 -149.337890625 9.635009765625 C-133.67070598449487 4.113241930542509 -117.76459175258572 0.9300679651253638 -101.149169921875 0.8203125 C-100.20462448120117 0.8104129028320308 -99.26007904052733 0.8005133056640616 -98.28691101074219 0.790313720703125 C-95.18543933042582 0.7589156165225983 -92.08395301493172 0.7339949656291829 -88.982421875 0.709228515625 C-86.8011693554185 0.6886083082740608 -84.61992037416442 0.6676107103211173 -82.43867492675781 0.6462554931640625 C-76.70074584007148 0.5912102365380605 -70.9627810656524 0.54179039986772 -65.22479248046875 0.493408203125 C-60.59138893802094 0.45337810162782866 -55.95802834545654 0.4092912845126335 -51.32466411590576 0.3649740219116211 C-45.73143005075687 0.3115942782755674 -40.1381783466079 0.260199619638831 -34.544921875 0.209228515625 C-34.02474078178406 0.20444960594177175 -34.02474078178406 0.20444960594177175 -31.392309188842773 0.1802654266357422 C-20.928253480154297 0.08568814405121827 -10.464519692469167 0.008846756067752537 0 0 Z M-180.375 78.101318359375 C-184.6166086761292 83.02363278594308 -187.91805337275366 88.3398533072567 -191.033203125 94.025634765625 C-191.3503125 94.604423828125 -191.3503125 94.604423828125 -192.955078125 97.533447265625 C-196.49200945552886 104.35633188220369 -198.9156167676955 111.34407669362771 -200.845703125 118.775634765625 C-201.040673828125 119.51185058593751 -201.23564453125 120.24806640625002 -201.4365234375 121.006591796875 C-205.20307639124744 136.76034899231067 -205.32382565660347 153.08301790535248 -205.26025390625 169.1845703125 C-205.2596880815362 171.22675572091606 -205.26000968379412 173.26894153438838 -205.26113891601563 175.31112670898438 C-205.26170675102168 180.7912684794294 -205.25004588811353 186.27132057080476 -205.23599100112915 191.75144171714783 C-205.22338750779633 197.5022431976626 -205.2223056293911 203.25304731191443 -205.21994018554688 209.0038604736328 C-205.21375343604723 219.8653244593365 -205.19738104264945 230.7267476124646 -205.17724120616913 241.58819371461868 C-205.15479430054512 253.9656603357513 -205.14386678168327 266.3431290287481 -205.13385033607483 278.7206109762192 C-205.11301196940605 304.1556414385837 -205.0778912279944 329.5906358018195 -205.033203125 355.025634765625 C-201.95672344058627 352.602141427704 -199.22795598560347 350.28682678679644 -196.720703125 347.275634765625 C-184.17148973084804 332.75058777324483 -169.355436457907 322.18840604486087 -152.033203125 314.025634765625 C-150.8691796875 313.472626953125 -149.70515625000002 312.919619140625 -148.505859375 312.349853515625 C-140.73537669019964 308.9672024481135 -132.8119678400493 306.79093336821535 -124.595703125 304.775634765625 C-124.09586914062498 304.65240844726566 -124.09586914062498 304.65240844726566 -121.56640625 304.02880859375 C-106.58881125313363 300.5366920297643 -91.93136240108896 299.7294785886741 -76.6184310913086 299.6901092529297 C-73.43587472612293 299.6816680611975 -70.25358518731912 299.66102749167504 -67.07110595703125 299.6375732421875 C-60.30851245403798 299.58980519866765 -53.54589166020668 299.5566114878441 -46.783203125 299.525634765625 C-38.94663235877712 299.48965701170084 -31.11019433519064 299.44731310581926 -23.27375030517578 299.3896942138672 C-20.176763354722794 299.36999961384925 -17.07988476826128 299.3613840411925 -13.98284912109375 299.3533935546875 C31.665026846116234 299.1102678887791 76.05916642918476 288.286571872945 109.576171875 255.568603515625 C119.77161131054987 245.1838202048435 127.13632826245055 233.28723044185128 132.966796875 220.025634765625 C133.4476171875 218.960869140625 133.92843749999997 217.896103515625 134.423828125 216.799072265625 C139.4341996882123 204.8407836404356 142.48743292782336 191.0084083349922 142.966796875 178.025634765625 C143.018359375 176.898994140625 143.06992187499998 175.772353515625 143.123046875 174.611572265625 C143.9937619408052 138.4043374458916 130.6781804902078 106.20238344696375 105.966796875 80.025634765625 C80.44308546848532 54.186815810881725 43.628769937671166 40.438784018614264 7.6156463623046875 39.88519287109375 C5.674370935714023 39.873327114629674 3.7330584935951947 39.866699114054555 1.791748046875 39.864501953125 C0.7218664550781568 39.859537048339845 -0.3480151367187432 39.85457214355469 -1.4503173828125 39.849456787109375 C-4.963629801625416 39.83494423564258 -8.47689699433198 39.82804947371945 -11.990234375 39.822509765625 C-13.20153203964233 39.819682388305665 -14.412829704284661 39.81685501098633 -15.660833358764648 39.813941955566406 C-22.078171687198335 39.798989364260024 -28.495487786002087 39.78973656323321 -34.912841796875 39.785400390625 C-41.48413762446859 39.779938639436914 -48.05522386961775 39.755947696269686 -54.62645435333252 39.7274284362793 C-59.728841741104645 39.70863814635615 -64.831180435058 39.703587696234315 -69.9335994720459 39.702064514160156 C-72.35287298505364 39.69907150078974 -74.77214635273566 39.691159171723854 -77.19138526916504 39.677879333496094 C-117.37255200309127 39.47315333106488 -152.38378870568152 47.37647135921858 -180.375 78.101318359375 Z " fill="#000000" transform="translate(257.033203125,9.974365234375)"></path><path d="M0 0 C6.69632422550319 3.9731523737985697 11.98473438886407 9.477499053483996 14.625 16.875 C16.502447031963584 24.713950919172646 15.935570522506083 33.20628343610957 11.84765625 40.25390625 C7.397042128573389 46.517232505989426 2.142723648700837 51.189738863262164 -5.4375 53.0625 C-16.136380037034883 54.142203489976 -23.84284007875604 53.22683432814338 -32.1875 46.4375 C-38.15440794473696 40.861527403366495 -40.928472484000366 34.050969656796525 -41.75 26 C-41.023950402740155 16.851775074526074 -37.45057148279909 9.046626632040926 -30.4375 3.0625 C-21.71089497070244 -3.4427873854763504 -9.959710326232965 -4.404371130398857 0 0 Z " fill="#000000" transform="translate(174.4375,153.9375)"></path><path d="M0 0 C5.470334032166988 4.110196532336005 10.764432708454194 9.727200543754662 12.15234375 16.6171875 C13.172364112324999 27.17439825006352 11.911616239816851 34.897144168339594 5.52734375 43.3671875 C0.7256931758213341 48.47862198219022 -4.537362308078173 51.21487032582186 -11.51171875 52.0625 C-21.115103984004918 52.35117891484984 -27.249634531524293 50.712009810512484 -35.09765625 45.4296875 C-42.13527103214943 38.23212692734717 -44.27135425941037 30.639465784512055 -44.19921875 20.79296875 C-43.447144982780515 13.99923571945061 -39.65212528088921 7.421656530889209 -34.84765625 2.6171875 C-24.71912562144547 -4.743297490937124 -11.149768716922381 -6.56741784657325 0 0 Z " fill="#000000" transform="translate(303.84765625,155.3828125)"></path></svg></g></g></svg></g></svg>